<svg display="none" xmlns="http://www.w3.org/2000/svg" xmlns:xlink="http://www.w3.org/1999/xlink">
    <symbol id="close" viewBox="0 0 24 24" fill="none">
        <path d="M18 6L6 18" stroke="#516DB0" stroke-width="2" stroke-linecap="round" stroke-linejoin="round"/>
        <path d="M6 6L18 18" stroke="#516DB0" stroke-width="2" stroke-linecap="round" stroke-linejoin="round"/>
    </symbol>
    <symbol id="eye-open" viewBox="0 0 24 24" fill="none">
        <path d="M21.2565 10.962C21.7305 11.582 21.7305 12.419 21.2565 13.038C19.7635 14.987 16.1815 19 11.9995 19C7.81752 19 4.23552 14.987 2.74252 13.038C2.51191 12.7411 2.38672 12.3759 2.38672 12C2.38672 11.6241 2.51191 11.2589 2.74252 10.962C4.23552 9.013 7.81752 5 11.9995 5C16.1815 5 19.7635 9.013 21.2565 10.962V10.962Z" stroke="#516DB0" stroke-width="2" stroke-linecap="round" stroke-linejoin="round"/>
        <path d="M12 15C13.6569 15 15 13.6569 15 12C15 10.3431 13.6569 9 12 9C10.3431 9 9 10.3431 9 12C9 13.6569 10.3431 15 12 15Z" stroke="#516DB0" stroke-width="2" stroke-linecap="round" stroke-linejoin="round"/>
    </symbol>
    <symbol id="double-checks" viewBox="0 0 24 24" fill="none">
        <path d="M6.7 17.5984C6.56667 17.5984 6.44167 17.5734 6.325 17.5234C6.20833 17.4734 6.1 17.3984 6 17.2984L1.775 13.0734C1.59167 12.8901 1.5 12.6524 1.5 12.3604C1.5 12.0691 1.59167 11.8318 1.775 11.6484C1.95833 11.4651 2.19167 11.3734 2.475 11.3734C2.75833 11.3734 2.99167 11.4651 3.175 11.6484L6.725 15.1984L8.125 16.5984L7.4 17.2984C7.3 17.3984 7.19167 17.4734 7.075 17.5234C6.95833 17.5734 6.83333 17.5984 6.7 17.5984ZM12.35 17.5734C12.2167 17.5734 12.0917 17.5524 11.975 17.5104C11.8583 17.4691 11.75 17.3984 11.65 17.2984L7.4 13.0484C7.21667 12.8651 7.125 12.6274 7.125 12.3354C7.125 12.0441 7.21667 11.8068 7.4 11.6234C7.58333 11.4401 7.81667 11.3484 8.1 11.3484C8.38333 11.3484 8.61667 11.4401 8.8 11.6234L12.35 15.1734L20.85 6.67344C21.0333 6.4901 21.2667 6.39844 21.55 6.39844C21.8333 6.39844 22.0667 6.4901 22.25 6.67344C22.4333 6.85677 22.525 7.0941 22.525 7.38544C22.525 7.67744 22.4333 7.9151 22.25 8.09844L13.05 17.2984C12.95 17.3984 12.8417 17.4691 12.725 17.5104C12.6083 17.5524 12.4833 17.5734 12.35 17.5734ZM12.35 12.3484L10.925 10.9484L15.175 6.69844C15.3583 6.5151 15.5957 6.42344 15.887 6.42344C16.179 6.42344 16.4167 6.5151 16.6 6.69844C16.7833 6.88177 16.875 7.1151 16.875 7.39844C16.875 7.68177 16.7833 7.9151 16.6 8.09844L12.35 12.3484Z" fill="#42823D"/>
    </symbol>
    <symbol id="error" viewBox="0 0 33 33" fill="none">
        <g><g id="Error_1_"><g id="Error"><circle cx="16" cy="16" id="BG" r="16" style="fill:#D72828;"/><path d="M14.5,25h3v-3h-3V25z M14.5,6v13h3V6H14.5z" id="Exclamatory_x5F_Sign" style="fill:#E6E6E6;"/></g></g></g>
    </symbol>
    <symbol id="eye-slashed" viewBox="0 0 24 24" fill="none" >
        <path d="M6.87264 17.129C5.02764 15.819 3.56764 14.115 2.74264 13.039C2.51195 12.742 2.38672 12.3766 2.38672 12.0005C2.38672 11.6244 2.51195 11.259 2.74264 10.962C4.23564 9.013 7.81765 5 11.9996 5C13.8756 5 15.6296 5.807 17.1296 6.874" stroke="#777B82" stroke-width="2" stroke-linecap="round" stroke-linejoin="round"/>
        <path d="M14.129 9.88651C13.8513 9.60418 13.5204 9.37962 13.1555 9.2258C12.7906 9.07197 12.3988 8.99192 12.0028 8.99026C11.6068 8.9886 11.2144 9.06537 10.8482 9.21613C10.482 9.36689 10.1492 9.58867 9.86916 9.86866C9.5891 10.1487 9.36725 10.4813 9.2164 10.8475C9.06555 11.2137 8.98869 11.6061 8.99026 12.0021C8.99182 12.3981 9.07178 12.7899 9.22552 13.1549C9.37926 13.5198 9.60374 13.8507 9.88601 14.1285" stroke="#777B82" stroke-width="2" stroke-linecap="round" stroke-linejoin="round"/>
        <path d="M4 20L20 4" stroke="#777B82" stroke-width="2" stroke-linecap="round" stroke-linejoin="round"/>
        <path d="M10 18.704C10.6492 18.8972 11.3227 18.9969 12 19C16.182 19 19.764 14.987 21.257 13.038C21.4876 12.7407 21.6127 12.3751 21.6125 11.9988C21.6124 11.6226 21.4869 11.2571 21.256 10.96C20.7313 10.2755 20.1684 9.62112 19.57 9" stroke="#777B82" stroke-width="2" stroke-linecap="round" stroke-linejoin="round"/>
    </symbol>
</svg>
